<svg width="24" height="24" viewBox="0 0 24 24" fill="none" xmlns="http://www.w3.org/2000/svg">
<path d="M19.6821 0H2.39693C1.07299 0 0 1.04568 0 2.33591V21.6641C0 22.9543 1.07299 24 2.39693 24H19.6831C21.006 24 22.08 22.9534 22.08 21.6641V2.33497C22.079 1.04474 21.006 0 19.6821 0Z" fill="#6D33AA"/>
<path opacity="0.28" d="M21.7959 16.4181L9.11863 23.745L3.84009 13.5613H7.11234L3.84009 6.47066H13.7343L15.3718 10.0454L18.3127 10.0155L21.7959 16.4181Z" fill="url(#paint0_linear_260_17716)"/>
<path d="M4.81918 7.82136H12.7547C13.2953 7.82136 13.7341 7.38257 13.7341 6.84202V6.73933C13.7341 6.19878 13.2953 5.75999 12.7547 5.75999H4.81918C4.27863 5.75999 3.83984 6.19878 3.83984 6.73933V6.84202C3.83984 7.38257 4.27863 7.82136 4.81918 7.82136Z" fill="white"/>
<path d="M17.3331 9.30577H9.39755C8.857 9.30577 8.41821 9.74456 8.41821 10.2851V10.3878C8.41821 10.9284 8.857 11.3671 9.39755 11.3671H17.3331C17.8737 11.3671 18.3124 10.9284 18.3124 10.3878V10.2851C18.3124 9.74456 17.8737 9.30577 17.3331 9.30577Z" fill="#8BF76D"/>
<path d="M13.7341 13.9326V13.83C13.7341 13.2894 13.2953 12.8506 12.7547 12.8506H4.81918C4.27863 12.8506 3.83984 13.2894 3.83984 13.83V13.9326C3.83984 14.4732 4.27863 14.912 4.81918 14.912H12.7547C13.2953 14.912 13.7341 14.4732 13.7341 13.9326Z" fill="white"/>
<path d="M17.333 16.3964H11.4588C10.9183 16.3964 10.4795 16.8352 10.4795 17.3758V17.4785C10.4795 18.019 10.9183 18.4578 11.4588 18.4578H17.333C17.8736 18.4578 18.3124 18.019 18.3124 17.4785V17.3758C18.3124 16.8352 17.8736 16.3964 17.333 16.3964Z" fill="#8BF76D"/>
<defs>
<linearGradient id="paint0_linear_260_17716" x1="15.5392" y1="20.0385" x2="6.73936" y2="4.79672" gradientUnits="userSpaceOnUse">
<stop offset="0.1966" stop-color="#6D33AA"/>
<stop offset="1"/>
</linearGradient>
</defs>
</svg>
